# xmcd
#
# Track frame offsets:
#  150
#  20250
#  44509
#  66913
#  88813
#  119355
#  133305
#  153052
#  180219
#  200401
#
# Disc length: 2898 seconds
#
# Revision: 0
# Processed by: cddbd v1.5.2PL0 Copyright (c) Steve Scherf et al.
# Submitted via: AltoMP3_Maker 3.0
#
DISCID=820b500a
DTITLE=The Genevieve Lemon Band - Angels In The City
DYEAR=1900
DGENRE=
TTITLE0=Downtown
TTITLE1=Walk On The Wildside
TTITLE2=Blue Sky Mine
TTITLE3=Arms Of The Angels
TTITLE4=Tom Traubert's Blues
TTITLE5=Somewhere, Somebody
TTITLE6=Feels Like Home
TTITLE7=Only A Dream
TTITLE8=Cowboy Man
TTITLE9=Don't Fence Me In
EXTD=
EXTT0=
EXTT1=
EXTT2=
EXTT3=
EXTT4=
EXTT5=
EXTT6=
EXTT7=
EXTT8=
EXTT9=
PLAYORDER=
